<svg width="34" height="34" viewBox="0 0 34 34" fill="none" xmlns="http://www.w3.org/2000/svg">
<path fill-rule="evenodd" clip-rule="evenodd" d="M14.1716 2.85772C15.7337 1.29563 18.2663 1.29563 19.8284 2.85772L31.1421 14.1714C32.7042 15.7335 32.7042 18.2662 31.1421 19.8283L19.8284 31.142C18.2663 32.7041 15.7337 32.7041 14.1716 31.142C12.6095 29.5799 12.6095 27.0472 14.1716 25.4851L22.6569 16.9999L14.1716 8.51458C12.6095 6.95248 12.6095 4.41982 14.1716 2.85772Z" fill="#3A4562"/>
<mask id="mask0_0_6233" style="mask-type:alpha" maskUnits="userSpaceOnUse" x="13" y="1" width="20" height="32">
<path fill-rule="evenodd" clip-rule="evenodd" d="M14.1716 2.85772C15.7337 1.29563 18.2663 1.29563 19.8284 2.85772L31.1421 14.1714C32.7042 15.7335 32.7042 18.2662 31.1421 19.8283L19.8284 31.142C18.2663 32.7041 15.7337 32.7041 14.1716 31.142C12.6095 29.5799 12.6095 27.0472 14.1716 25.4851L22.6569 16.9999L14.1716 8.51458C12.6095 6.95248 12.6095 4.41982 14.1716 2.85772Z" fill="white"/>
</mask>
<g mask="url(#mask0_0_6233)">
<rect x="7" width="27" height="34" fill="#E6E9F2"/>
</g>
</svg>
