<svg width="13" height="13" viewBox="0 0 13 13" fill="none" xmlns="http://www.w3.org/2000/svg">
<path fill-rule="evenodd" clip-rule="evenodd" d="M12.4245 4.56182C11.0892 4.29539 8.69508 4.10716 8.69508 4.10716C8.69508 4.10716 7.74327 1.7763 7.04037 0.487101C7.36709 1.08787 6.66986 -0.838192 5.96857 0.459599C5.27134 1.74879 4.249 4.11748 4.249 4.11748C4.249 4.11748 1.92867 4.31 0.59177 4.58073C1.11551 4.47501 -0.631631 4.524 0.256125 5.56567C1.16091 6.62797 2.66807 8.39675 2.66807 8.39675C2.66807 8.39675 2.46619 10.7491 2.34134 12.2059C2.37377 11.8303 1.88408 13.5149 3.32557 12.7903C4.48817 12.2068 6.51177 11.1891 6.51177 11.1891C6.51177 11.1891 8.49969 12.1784 9.76444 12.8084C9.35421 12.6038 10.8225 13.6971 10.6871 12.181C10.5573 10.7225 10.3482 8.38042 10.3482 8.38042C10.3482 8.38042 11.7986 6.66837 12.7042 5.59919C12.3264 6.04525 13.7452 4.82568 12.4245 4.56182Z" fill="white" fill-opacity="0.669635"/>
</svg>
