<svg width="34" height="34" viewBox="0 0 34 34" fill="none" xmlns="http://www.w3.org/2000/svg">
<path fill-rule="evenodd" clip-rule="evenodd" d="M19.8284 2.85772C18.2663 1.29563 15.7337 1.29563 14.1716 2.85772L2.85786 14.1714C1.29577 15.7335 1.29577 18.2662 2.85786 19.8283L14.1716 31.142C15.7337 32.7041 18.2663 32.7041 19.8284 31.142C21.3905 29.5799 21.3905 27.0472 19.8284 25.4851L11.3431 16.9999L19.8284 8.51458C21.3905 6.95248 21.3905 4.41982 19.8284 2.85772Z" fill="#3A4562"/>
<mask id="mask0_0_6234" style="mask-type:alpha" maskUnits="userSpaceOnUse" x="1" y="1" width="20" height="32">
<path fill-rule="evenodd" clip-rule="evenodd" d="M19.8284 2.85772C18.2663 1.29563 15.7337 1.29563 14.1716 2.85772L2.85786 14.1714C1.29577 15.7335 1.29577 18.2662 2.85786 19.8283L14.1716 31.142C15.7337 32.7041 18.2663 32.7041 19.8284 31.142C21.3905 29.5799 21.3905 27.0472 19.8284 25.4851L11.3431 16.9999L19.8284 8.51458C21.3905 6.95248 21.3905 4.41982 19.8284 2.85772Z" fill="white"/>
</mask>
<g mask="url(#mask0_0_6234)">
<rect width="27" height="34" fill="#E6E9F2"/>
</g>
</svg>
