<svg width="10" height="10" viewBox="0 0 19 18" fill="none" xmlns="http://www.w3.org/2000/svg">
<path fill-rule="evenodd" clip-rule="evenodd" d="M6.69871 4.58917C7.42979 2.93067 8.82013 0 9.51634 0C10.5274 -0.001 12.7421 5.686 12.7421 5.686C12.7421 5.686 14.7923 5.865 16.4493 6.048C17.3289 6.145 18.8997 6.293 18.998 6.778C19.019 6.883 18.8927 7.312 18.663 7.611C17.69 8.881 15.1654 11.602 15.1654 11.602C15.1654 11.602 15.3038 12.902 15.4272 14.324C15.5064 15.244 15.7201 17.108 15.6428 17.441C15.5586 17.808 15.4071 17.908 15.2497 17.966C14.8384 18.116 13.8835 17.533 12.7682 16.999C11.2486 16.27 9.54141 15.491 9.54141 15.491C9.54141 15.491 8.41501 16.08 7.07998 16.655C5.65367 17.269 4.20931 18.281 3.60649 17.925C3.23035 17.702 3.50919 15.964 3.65363 14.417C3.78904 12.958 3.90639 11.625 3.90639 11.625C3.90639 11.625 3.06987 10.643 2.09592 9.593C1.04375 8.458 -0.239128 7.233 0.0387113 6.783C0.248344 6.443 1.20523 6.261 2.81209 6.062C4.51924 5.85 6.22439 5.7 6.22439 5.7C6.22439 5.7 6.41022 5.24364 6.69871 4.58917Z" fill="#38415D"/>
</svg>
